<svg xmlns="http://www.w3.org/2000/svg" viewBox="0 -0.5 166 168" shape-rendering="crispEdges">
<path stroke="#ffffff" d="M0 0h166M75 1h10M72 2h22M67 3h32M64 4h38M61 5h44M58 6h49M56 7h53M54 8h58M53 9h60M51 10h64M49 11h68M48 12h71M46 13h74M45 14h76M44 15h78M43 16h81M41 17h83M40 18h83M39 19h83M38 20h83M37 21h83M36 22h83M35 23h84M35 24h83M34 25h83M33 26h83M32 27h83M32 28h82M31 29h82M30 30h82M30 31h82M29 32h82M29 33h81M28 34h81M27 35h81M27 36h80M26 37h80M26 38h79M25 39h80M25 40h79M25 41h78M24 42h78M24 43h54M88 43h13M24 44h51M91 44h9M23 45h50M93 45h6M23 46h48M95 46h3M23 47h47M96 47h2M23 48h46M22 49h46M22 50h45M22 51h44M22 52h43M21 53h44M21 54h43M21 55h43M21 56h42M21 57h42M21 58h42M21 59h41M21 60h41M21 61h41M21 62h41M20 63h42M20 64h42M20 65h42M20 66h42M20 67h42M20 68h42M20 69h42M20 70h42M20 71h42M20 72h42M20 73h42M20 74h42M20 75h42M20 76h42M20 77h42M83 77h62M20 78h42M83 78h62M20 79h42M83 79h62M20 80h42M83 80h62M20 81h42M83 81h62M20 82h42M83 82h62M20 83h42M83 83h62M20 84h42M83 84h62M20 85h42M83 85h62M20 86h42M83 86h62M20 87h42M83 87h62M20 88h42M83 88h62M20 89h42M83 89h62M20 90h42M83 90h62M20 91h42M83 91h62M20 92h42M83 92h62M20 93h42M83 93h62M20 94h42M83 94h62M20 95h42M83 95h62M20 96h42M83 96h62M20 97h42M83 97h62M20 98h42M83 98h62M20 99h42M83 99h62M20 100h42M83 100h62M20 101h42M83 101h62M20 102h42M83 102h62M20 103h42M83 103h62M20 104h42M83 104h62M20 105h42M83 105h62M20 106h42M104 106h41M21 107h41M104 107h41M21 108h41M104 108h41M21 109h41M104 109h41M21 110h41M104 110h41M21 111h42M103 111h42M21 112h42M103 112h42M21 113h42M103 113h42M21 114h43M103 114h42M21 115h43M102 115h43M21 116h44M101 116h44M22 117h43M101 117h44M22 118h44M100 118h44M22 119h45M99 119h45M22 120h46M98 120h46M22 121h47M97 121h47M23 122h47M96 122h47M23 123h48M95 123h48M23 124h50M93 124h50M24 125h51M91 125h51M24 126h54M88 126h54M24 127h118M25 128h116M25 129h116M25 130h115M26 131h114M26 132h114M27 133h112M27 134h112M28 135h110M28 136h110M29 137h108M29 138h107M30 139h106M30 140h105M31 141h103M32 142h102M33 143h100M34 144h98M35 145h96M36 146h94M36 147h94M37 148h92M38 149h90M39 150h88M40 151h86M41 152h84M42 153h82M44 154h78M45 155h76M46 156h74M48 157h70M49 158h68M51 159h64M53 160h60M54 161h57M56 162h53M58 163h49M61 164h44M64 165h38M68 166h30M72 167h21" />
<path stroke="#ee9fcd" d="M0 1h4M5 1h1M8 1h2" />
<path stroke="#eea0cd" d="M4 1h1M6 1h1M11 1h1M14 1h1" />
<path stroke="#ee9fcc" d="M7 1h1M10 1h1" />
<path stroke="#eea0cc" d="M12 1h2M15 1h1" />
<path stroke="#efa3ce" d="M16 1h4M24 1h1" />
<path stroke="#efa3cf" d="M20 1h4M25 1h2" />
<path stroke="#fae3f5" d="M27 1h1" />
<path stroke="#fef8fe" d="M28 1h2M33 1h1" />
<path stroke="#fef9fe" d="M30 1h3M34 1h11M60 5h1M50 10h1M29 31h1M24 41h1M20 58h1M20 111h1M24 128h1M50 159h1M60 164h1" />
<path stroke="#fefafe" d="M45 1h6M53 1h1M63 4h1M23 44h1M20 59h1M20 110h1M23 125h1M63 165h1" />
<path stroke="#fefbfe" d="M51 1h2M54 1h7M63 1h1" />
<path stroke="#fffcff" d="M61 1h2M64 1h6M20 60h1M20 109h1" />
<path stroke="#fffdff" d="M70 1h4M71 2h1M52 9h1M47 12h1M43 15h1M34 24h1M31 28h1M28 33h1M21 52h1M20 61h1M20 108h1M21 117h1M34 145h1M43 154h1M47 157h1M52 160h1M71 167h1" />
<path stroke="#fffeff" d="M74 1h1M42 16h1M22 48h1M20 62h1M20 107h1M35 146h1M67 166h1" />
<path stroke="#fdfeff" d="M85 1h1M105 38h1M145 77h1M145 78h1M145 79h1M145 80h1M145 81h1M145 82h1M145 83h1M145 84h1M145 85h1M145 86h1M145 87h1M145 88h1M145 89h1M145 90h1M145 91h1M145 92h1M145 93h1M145 94h1M145 95h1M145 96h1M145 97h1M145 98h1M145 99h1M145 100h1M145 101h1M145 102h1M145 103h1M145 104h1M145 105h1M113 160h1M109 162h1" />
<path stroke="#f6fcff" d="M86 1h1M78 43h1M145 108h1M103 110h1M78 126h1M87 126h1M115 159h1" />
<path stroke="#edf9fe" d="M87 1h1" />
<path stroke="#e1f5fe" d="M88 1h1M123 18h1M132 144h1" />
<path stroke="#d3f0fd" d="M89 1h1M139 1h5M69 48h1M69 121h1M110 162h1" />
<path stroke="#c1eafc" d="M90 1h1M100 1h4M105 1h1M107 1h1M114 9h1M118 24h1M133 143h1" />
<path stroke="#bce8fc" d="M91 1h1M94 1h2M119 12h1M141 129h1" />
<path stroke="#bbe8fc" d="M92 1h1" />
<path stroke="#bbe8fb" d="M93 1h1" />
<path stroke="#bee9fc" d="M96 1h2M72 46h1M65 53h1M65 116h1M72 123h1" />
<path stroke="#bfeafc" d="M98 1h1" />
<path stroke="#bfe9fc" d="M99 1h1M103 41h1M96 48h1M103 165h1" />
<path stroke="#c1ebfd" d="M104 1h1" />
<path stroke="#c4ebfc" d="M106 1h1M108 1h2M112 1h1M96 2h1M76 44h1M89 44h1M103 108h1M96 121h1M76 125h1M89 125h1" />
<path stroke="#c6ecfd" d="M110 1h1" />
<path stroke="#c6ecfc" d="M111 1h1M113 1h1" />
<path stroke="#c7ecfc" d="M114 1h1M118 1h1" />
<path stroke="#c7ecfd" d="M115 1h1" />
<path stroke="#c9edfd" d="M116 1h1M120 1h1" />
<path stroke="#c9edfc" d="M117 1h1M119 1h1M106 5h1M80 43h1M62 61h1M62 108h1M80 126h1M85 126h1M114 160h1" />
<path stroke="#cbedfd" d="M121 1h1" />
<path stroke="#cbedfc" d="M122 1h1M124 1h1M137 137h1" />
<path stroke="#cceefc" d="M123 1h1M100 3h1M85 43h1" />
<path stroke="#cceefd" d="M125 1h1M108 163h1" />
<path stroke="#ceeefd" d="M126 1h1M128 1h1M130 1h1M132 1h1M63 57h1M63 112h1M99 118h1" />
<path stroke="#ccedfc" d="M127 1h1" />
<path stroke="#ceeffd" d="M129 1h1M131 1h1" />
<path stroke="#d0effd" d="M133 1h1M108 6h1M102 42h1" />
<path stroke="#d1effd" d="M134 1h1M136 1h3M117 25h1M140 131h1" />
<path stroke="#d1f0fd" d="M135 1h1" />
<path stroke="#d5f1fd" d="M144 1h2M147 1h1M110 7h1M124 17h1" />
<path stroke="#d7f1fd" d="M146 1h1M149 1h1M152 1h1" />
<path stroke="#d7f2fd" d="M148 1h1M150 1h2M153 1h1M112 8h1M120 13h1M101 115h1M142 126h1" />
<path stroke="#d9f2fd" d="M154 1h4M102 113h1M112 161h1" />
<path stroke="#daf2fd" d="M158 1h1M103 4h1M109 34h1M120 156h1" />
<path stroke="#dbf3fd" d="M159 1h1M161 1h2" />
<path stroke="#dcf3fd" d="M160 1h1M163 1h3M92 45h1M144 119h1" />
<path stroke="#d62988" d="M0 2h26M0 3h25M0 4h24M0 5h22M0 6h21M0 7h21M0 8h20M0 9h19M0 10h18M0 11h17M0 12h16M0 13h16M0 14h15M0 15h14M0 16h14M0 17h13M0 18h12M0 19h12M0 20h11M0 21h10M0 22h10M0 23h9M0 24h9M0 25h8M0 26h8M0 27h7M0 28h7M0 29h6M0 30h6M0 31h5M0 32h5M0 33h5M0 34h4M0 35h4M0 36h3M0 37h3M0 38h3M0 39h3M0 40h2M0 41h2M0 42h2M0 43h1M0 44h1M0 45h1M0 46h1M0 123h1M0 124h1M0 125h1M0 126h1M0 127h2M0 128h2M0 129h2M0 130h3M0 131h3M0 132h3M0 133h3M0 134h4M0 135h4M0 136h5M0 137h5M0 138h5M0 139h6M0 140h6M0 141h7M0 142h7M0 143h8M0 144h8M0 145h9M0 146h9M0 147h10M0 148h10M0 149h11M0 150h12M0 151h12M0 152h13M0 153h14M0 154h14M0 155h15M0 156h16M0 157h16M0 158h17M0 159h18M0 160h19M0 161h20M0 162h21M0 163h22M0 164h23M0 165h24M0 166h25M0 167h26" />
<path stroke="#e465c0" d="M26 2h1M4 134h1M10 147h1" />
<path stroke="#ef97ef" d="M27 2h39M26 3h37M25 4h35M24 5h33M23 6h32M22 7h31M21 8h31M21 9h29M20 10h28M19 11h28M18 12h27M17 13h27M16 14h27M16 15h26M15 16h25M14 17h25M14 18h24M13 19h24M12 20h24M12 21h23M11 22h23M11 23h23M10 24h23M10 25h22M9 26h22M9 27h22M8 28h22M7 29h22M7 30h22M7 31h21M6 32h22M6 33h21M5 34h21M5 35h21M5 36h20M4 37h21M4 38h20M4 39h20M3 40h21M3 41h20M3 42h20M3 43h20M2 44h20M2 45h20M2 46h20M1 47h21M1 48h20M1 49h20M1 50h20M1 51h20M1 52h19M1 53h19M0 54h20M0 55h20M0 56h20M0 57h20M0 58h20M0 59h20M0 60h20M0 61h20M0 62h19M0 63h19M0 64h19M0 65h19M0 66h19M0 67h19M0 68h19M0 69h19M0 70h19M0 71h19M0 72h19M0 73h19M0 74h19M0 75h19M0 76h19M0 77h19M0 78h19M0 79h19M0 80h19M0 81h19M0 82h19M0 83h19M0 84h19M0 85h19M0 86h19M0 87h19M0 88h19M0 89h19M0 90h19M0 91h19M0 92h19M0 93h19M0 94h19M0 95h19M0 96h19M0 97h19M0 98h19M0 99h19M0 100h19M0 101h19M0 102h19M0 103h19M0 104h19M0 105h19M0 106h19M0 107h19M0 108h20M0 109h20M0 110h20M0 111h20M0 112h20M0 113h20M0 114h20M0 115h20M1 116h19M1 117h19M1 118h20M1 119h20M1 120h20M1 121h20M1 122h20M2 123h20M2 124h20M2 125h20M3 126h20M3 127h20M3 128h20M3 129h21M4 130h20M4 131h20M4 132h21M5 133h20M5 134h21M5 135h21M6 136h21M6 137h21M7 138h21M7 139h21M7 140h22M8 141h21M9 142h21M9 143h22M10 144h22M10 145h23M11 146h23M11 147h24M12 148h23M12 149h24M13 150h24M14 151h24M14 152h25M15 153h25M16 154h25M16 155h27M17 156h27M18 157h27M19 158h28M20 159h28M21 160h29M21 161h31M22 162h31M23 163h32M24 164h33M25 165h35M26 166h37M27 167h40" />
<path stroke="#f7c9f7" d="M66 2h3M63 3h2M60 4h2M57 5h2M55 6h2M53 7h2M52 8h1M50 9h1M48 10h1M47 11h1M45 12h1M44 13h1M43 14h1M42 15h1M40 16h2M39 17h2M38 18h2M37 19h2M36 20h2M35 21h2M34 22h2M34 23h1M33 24h1M32 25h1M31 26h1M30 28h1M29 29h1M28 31h1M27 33h1M26 34h1M26 35h1M25 36h1M25 37h1M24 38h1M24 39h1M23 41h1M23 42h1M22 44h1M22 45h1M21 48h1M21 49h1M20 52h1M20 53h1M20 54h1M19 62h1M19 63h1M19 64h1M19 65h1M19 66h1M19 67h1M19 68h1M19 69h1M19 70h1M19 71h1M19 72h1M19 73h1M19 74h1M19 75h1M19 76h1M19 77h1M19 78h1M19 79h1M19 80h1M19 81h1M19 82h1M19 83h1M19 84h1M19 85h1M19 86h1M19 87h1M19 88h1M19 89h1M19 90h1M19 91h1M19 92h1M19 93h1M19 94h1M19 95h1M19 96h1M19 97h1M19 98h1M19 99h1M19 100h1M19 101h1M19 102h1M19 103h1M19 104h1M19 105h1M19 106h1M19 107h1M20 115h1M20 116h1M20 117h1M21 120h1M21 121h1M21 122h1M22 124h1M22 125h1M23 127h1M23 128h1M24 130h1M24 131h1M25 132h1M25 133h1M26 134h1M26 135h1M27 136h1M27 137h1M28 138h1M28 139h1M29 140h1M29 141h1M30 142h1M31 143h1M32 144h1M33 145h1M34 146h1M35 147h1M35 148h2M36 149h2M37 150h2M38 151h2M39 152h2M40 153h2M41 154h2M43 155h1M44 156h1M45 157h1M47 158h1M48 159h1M50 160h1M52 161h1M53 162h2M55 163h2M57 164h2M60 165h2M63 166h2M67 167h2" />
<path stroke="#fae0fa" d="M69 2h1M51 9h1M28 32h1M21 119h1M51 160h1" />
<path stroke="#fdf4fd" d="M70 2h1M44 14h1M33 25h1M21 118h1M44 155h1" />
<path stroke="#f4fbfe" d="M94 2h1M99 3h1M94 167h1" />
<path stroke="#e2f5fe" d="M95 2h1M66 51h1M66 118h1M95 122h1" />
<path stroke="#a0defb" d="M97 2h1M104 4h1" />
<path stroke="#7fd3f9" d="M98 2h2M102 3h1M105 4h1M107 5h1M109 6h1M111 7h2M113 8h1M115 9h1M117 10h1M119 11h1M120 12h1M121 13h1M122 14h1M124 15h1M124 18h1M123 19h1M122 20h1M119 24h1M118 25h1M117 26h1M116 27h1M115 28h1M114 29h1M112 32h1M111 33h1M110 34h1M109 35h1M108 36h1M107 37h1M106 38h1M105 40h1M104 41h1M103 42h1M102 43h1M77 44h2M87 44h2M101 44h1M75 45h1M90 45h1M100 45h1M73 46h1M92 46h1M99 46h1M71 47h1M94 47h1M70 48h1M95 48h1M98 48h1M68 49h2M68 50h1M67 51h1M66 52h1M65 54h1M64 56h1M63 58h1M63 59h1M62 64h1M62 65h1M62 66h1M62 67h1M62 68h1M62 69h1M62 70h1M62 71h1M62 72h1M62 73h1M62 74h1M62 75h1M62 76h1M82 76h1M62 77h1M82 77h1M62 78h1M82 78h1M62 79h1M82 79h1M62 80h1M82 80h1M62 81h1M82 81h1M62 82h1M82 82h1M62 83h1M82 83h1M62 84h1M82 84h1M62 85h1M82 85h1M62 86h1M82 86h1M62 87h1M82 87h1M62 88h1M82 88h1M62 89h1M82 89h1M62 90h1M82 90h1M62 91h1M82 91h1M62 92h1M82 92h1M62 93h1M82 93h1M62 94h1M82 94h1M62 95h1M82 95h1M62 96h1M82 96h1M62 97h1M82 97h1M62 98h1M82 98h1M62 99h1M82 99h1M62 100h1M82 100h1M62 101h1M82 101h1M62 102h1M82 102h1M62 103h1M82 103h1M62 104h1M82 104h1M62 105h1M82 105h1M82 106h22M63 110h1M102 110h1M63 111h1M102 111h1M64 113h1M101 114h1M65 115h1M100 115h1M145 116h1M66 117h1M99 117h1M145 117h1M67 118h1M98 118h1M145 118h1M68 119h1M97 119h1M68 120h2M96 120h2M70 121h1M95 121h1M144 121h1M71 122h1M94 122h1M144 122h1M73 123h1M92 123h1M75 124h1M90 124h1M77 125h2M87 125h2M143 125h1M142 128h1M141 130h1M140 132h1M140 133h1M139 135h1M138 137h1M137 138h1M136 140h1M135 141h1M134 143h1M133 144h1M132 145h1M130 148h1M129 149h1M128 150h1M127 151h1M126 152h1M125 153h1M124 154h1M121 156h1M120 157h1M117 159h1M115 160h1M113 161h1M111 162h1M109 163h1M107 164h1M104 165h2M101 166h2M97 167h2" />
<path stroke="#69ccf8" d="M100 2h66M103 3h63M106 4h60M108 5h58M110 6h56M113 7h53M114 8h52M116 9h50M118 10h48M120 11h46M121 12h45M122 13h44M123 14h43M125 15h41M125 16h41M125 17h41M125 18h41M124 19h42M123 20h43M122 21h44M121 22h45M120 23h46M120 24h46M119 25h47M118 26h48M117 27h49M116 28h50M115 29h51M114 30h52M113 31h53M113 32h53M112 33h54M111 34h55M110 35h56M109 36h57M108 37h58M107 38h59M106 39h60M106 40h60M105 41h61M104 42h62M103 43h63M79 44h8M102 44h64M76 45h14M101 45h65M74 46h18M100 46h66M72 47h22M99 47h67M71 48h24M99 48h67M70 49h96M69 50h97M68 51h98M67 52h99M66 53h100M66 54h100M65 55h101M65 56h101M64 57h102M64 58h102M64 59h102M63 60h103M63 61h103M63 62h103M63 63h103M63 64h103M63 65h103M63 66h103M63 67h103M63 68h103M63 69h103M63 70h103M63 71h103M63 72h103M63 73h103M63 74h103M63 75h103M63 76h19M146 76h20M63 77h19M146 77h20M63 78h19M146 78h20M63 79h19M146 79h20M63 80h19M146 80h20M63 81h19M146 81h20M63 82h19M146 82h20M63 83h19M146 83h20M63 84h19M146 84h20M63 85h19M146 85h20M63 86h19M146 86h20M63 87h19M146 87h20M63 88h19M146 88h20M63 89h19M146 89h20M63 90h19M146 90h20M63 91h19M146 91h20M63 92h19M146 92h20M63 93h19M146 93h20M63 94h19M146 94h20M63 95h19M146 95h20M63 96h19M146 96h20M63 97h19M146 97h20M63 98h19M146 98h20M63 99h19M146 99h20M63 100h19M146 100h20M63 101h19M146 101h20M63 102h19M146 102h20M63 103h19M146 103h20M63 104h19M146 104h20M63 105h19M146 105h20M63 106h19M146 106h20M63 107h40M146 107h20M63 108h40M146 108h20M63 109h40M146 109h20M64 110h38M146 110h20M64 111h38M146 111h20M64 112h38M146 112h20M65 113h37M146 113h20M65 114h36M146 114h20M66 115h34M146 115h20M66 116h34M146 116h20M67 117h32M146 117h19M68 118h30M146 118h19M69 119h28M145 119h20M70 120h26M145 120h20M71 121h24M145 121h20M72 122h22M145 122h20M74 123h18M144 123h20M76 124h14M144 124h20M79 125h8M144 125h20M143 126h20M143 127h20M143 128h20M142 129h21M142 130h20M141 131h21M141 132h21M141 133h20M140 134h21M140 135h21M139 136h21M139 137h21M138 138h21M137 139h22M137 140h22M136 141h22M135 142h23M135 143h22M134 144h22M133 145h23M132 146h23M131 147h24M131 148h23M130 149h24M129 150h24M128 151h24M127 152h25M126 153h25M125 154h25M123 155h27M122 156h27M121 157h27M119 158h28M118 159h28M116 160h29M114 161h31M112 162h32M110 163h33M108 164h34M106 165h35M103 166h37M99 167h40" />
<path stroke="#e569c3" d="M25 3h1" />
<path stroke="#fbe3fb" d="M65 3h1M22 123h1" />
<path stroke="#fef5fe" d="M66 3h1M22 122h1" />
<path stroke="#84d5f9" d="M101 3h1" />
<path stroke="#e56cc6" d="M24 4h1M23 5h1" />
<path stroke="#fbe5fb" d="M62 4h1M23 43h1M20 56h1M20 113h1M23 126h1M62 165h1" />
<path stroke="#f9fdff" d="M102 4h1M113 29h1M106 37h1M62 59h1M145 107h1M62 110h1M144 118h1" />
<path stroke="#d62a88" d="M22 5h1M21 6h1" />
<path stroke="#fbe2fb" d="M59 5h1M24 40h1M22 46h1M24 129h1M59 164h1M65 166h1" />
<path stroke="#fafdff" d="M105 5h1M120 21h1M71 46h1M98 46h1M65 52h1M65 117h1M71 123h1M98 166h1" />
<path stroke="#e66fc9" d="M22 6h1M10 22h1M7 141h1" />
<path stroke="#fceafc" d="M57 6h1M55 7h1M53 8h1M27 34h1M26 36h1M25 38h1M25 131h1M26 133h1M53 161h1M55 162h1M57 163h1" />
<path stroke="#fcfeff" d="M107 6h1M113 9h1M145 106h1M102 114h1M142 125h1M140 130h1" />
<path stroke="#e468c3" d="M21 7h1M6 30h1M6 139h1M9 145h1" />
<path stroke="#feffff" d="M109 7h1M119 22h1M112 30h1M130 146h1M122 154h1M118 157h1M111 161h1M93 167h1" />
<path stroke="#df53af" d="M20 8h1" />
<path stroke="#dc45a1" d="M19 9h1" />
<path stroke="#ef96ee" d="M20 9h1M10 23h1M9 25h1M8 27h1M2 43h1M0 116h1M20 160h1" />
<path stroke="#d93997" d="M18 10h1" />
<path stroke="#ee91e9" d="M19 10h1M15 15h1M13 18h1M11 21h1M6 31h1M19 159h1" />
<path stroke="#f8d3f8" d="M49 10h1M46 12h1M31 27h1M29 30h1M46 157h1M49 159h1" />
<path stroke="#f2fafe" d="M115 10h1M73 45h1M64 54h1M63 56h1M63 113h1M64 115h1M94 123h1M73 124h1M121 155h1" />
<path stroke="#a6e1fb" d="M116 10h1M93 46h1" />
<path stroke="#d8318e" d="M17 11h1" />
<path stroke="#ec89e2" d="M18 11h1" />
<path stroke="#fdf2fd" d="M48 11h1M30 29h1M48 158h1" />
<path stroke="#e5f6fe" d="M117 11h1M108 35h1" />
<path stroke="#87d6fa" d="M118 11h1" />
<path stroke="#d72c8a" d="M16 12h1M3 133h1" />
<path stroke="#e97fd8" d="M17 12h1" />
<path stroke="#e671ca" d="M16 13h1M8 26h1M3 38h1" />
<path stroke="#fce7fc" d="M45 13h1M32 26h1M45 156h1" />
<path stroke="#df53ae" d="M15 14h1M13 17h1M11 20h1" />
<path stroke="#eaf8fe" d="M121 14h1M115 27h1M100 44h1M145 111h1M105 164h1" />
<path stroke="#d93592" d="M14 15h1M12 18h1M10 21h1" />
<path stroke="#fbfeff" d="M122 15h1M107 163h1" />
<path stroke="#95dbfa" d="M123 15h1M145 115h1" />
<path stroke="#e87bd5" d="M14 16h1M12 19h1M5 33h1M2 42h1M17 157h1" />
<path stroke="#b9e7fc" d="M124 16h1M127 150h1M100 166h1" />
<path stroke="#ecf9fe" d="M122 19h1M92 124h1" />
<path stroke="#f4fbff" d="M121 20h1M99 45h1" />
<path stroke="#83d4f9" d="M121 21h1" />
<path stroke="#9cdefb" d="M120 22h1" />
<path stroke="#d93896" d="M9 23h1M8 25h1M7 27h1" />
<path stroke="#b0e4fb" d="M119 23h1M81 43h1M62 62h1M62 107h1M144 120h1M81 126h1M84 126h1" />
<path stroke="#e66fca" d="M9 24h1M12 150h1" />
<path stroke="#dff4fd" d="M116 26h1M79 43h1M101 43h1M95 47h1M62 60h1M62 109h1M145 112h1M143 123h1M79 126h1M86 126h1M95 167h1" />
<path stroke="#e771cb" d="M7 28h1" />
<path stroke="#f3fbfe" d="M114 28h1M90 44h1M145 109h1M136 138h1" />
<path stroke="#d93b99" d="M6 29h1" />
<path stroke="#8bd7f9" d="M113 30h1" />
<path stroke="#d62b8a" d="M5 31h1" />
<path stroke="#a3e0fb" d="M112 31h1M74 45h1M64 55h1M103 107h1M64 114h1M74 124h1M136 139h1M129 148h1" />
<path stroke="#df50ac" d="M5 32h1M0 49h1M15 155h1" />
<path stroke="#b8e7fb" d="M111 32h1M67 50h1M67 119h1" />
<path stroke="#cbeefd" d="M110 33h1M145 113h1" />
<path stroke="#d93694" d="M4 34h1M4 135h1M7 142h1" />
<path stroke="#e363be" d="M4 35h1" />
<path stroke="#d62a89" d="M3 36h1" />
<path stroke="#ed8fe7" d="M4 36h1M15 154h1" />
<path stroke="#f0fafe" d="M107 36h1M75 44h1M75 125h1M90 125h1M141 128h1" />
<path stroke="#dd4ba8" d="M3 37h1" />
<path stroke="#ed90e9" d="M3 39h1M6 138h1" />
<path stroke="#96dbfa" d="M105 39h1M134 142h1" />
<path stroke="#da3f9c" d="M2 40h1" />
<path stroke="#ade3fb" d="M104 40h1" />
<path stroke="#e25cb8" d="M2 41h1" />
<path stroke="#d72c8b" d="M1 43h1M0 47h1M0 122h1M1 126h1M5 138h1" />
<path stroke="#8fd9f9" d="M82 43h1M62 63h1M62 106h1M82 126h2M142 127h1" />
<path stroke="#87d6f9" d="M83 43h1M98 47h1" />
<path stroke="#b0e4fc" d="M84 43h1" />
<path stroke="#e3f6fe" d="M86 43h1M99 166h1" />
<path stroke="#f5fcff" d="M87 43h1" />
<path stroke="#dd49a5" d="M1 44h1" />
<path stroke="#e467c2" d="M1 45h1" />
<path stroke="#99dcfa" d="M91 45h1" />
<path stroke="#eb85de" d="M1 46h1" />
<path stroke="#f7fcff" d="M94 46h1M143 122h1" />
<path stroke="#fdf3fd" d="M22 47h1M21 51h1M20 57h1M20 112h1M66 166h1M70 167h1" />
<path stroke="#effafe" d="M70 47h1M70 122h1M102 165h1" />
<path stroke="#da3f9d" d="M0 48h1M2 129h1" />
<path stroke="#9fdefb" d="M97 48h1M91 124h1" />
<path stroke="#e361bc" d="M0 50h1M0 119h1" />
<path stroke="#fadefa" d="M21 50h1M69 167h1" />
<path stroke="#e772cb" d="M0 51h1M3 131h1" />
<path stroke="#ea83dc" d="M0 52h1" />
<path stroke="#ee94ec" d="M0 53h1M2 126h1" />
<path stroke="#f9d5f9" d="M20 55h1M20 114h1" />
<path stroke="#e0f3fb" d="M83 76h3M108 76h2" />
<path stroke="#e2f4fc" d="M86 76h1" />
<path stroke="#e5f6fd" d="M87 76h1M106 76h1" />
<path stroke="#e7f7fe" d="M88 76h18M112 76h34M100 117h1M138 135h1" />
<path stroke="#e1f3fb" d="M107 76h1M110 76h1" />
<path stroke="#e3f5fc" d="M111 76h1" />
<path stroke="#ddf4fd" d="M103 109h1M139 133h1M135 140h1" />
<path stroke="#eff9fe" d="M145 110h1" />
<path stroke="#aae2fc" d="M102 112h1M98 119h1M126 151h1M125 152h1M124 153h1M123 154h1" />
<path stroke="#b2e5fb" d="M145 114h1M128 149h1M96 167h1" />
<path stroke="#8ed9f9" d="M100 116h1M139 134h1" />
<path stroke="#ea84dd" d="M0 117h1" />
<path stroke="#68baeb" d="M165 117h1" />
<path stroke="#e772cc" d="M0 118h1M14 153h1" />
<path stroke="#66a2da" d="M165 118h1M153 150h1" />
<path stroke="#648ac8" d="M165 119h1" />
<path stroke="#de4fac" d="M0 120h1" />
<path stroke="#6272b8" d="M165 120h1M162 132h1" />
<path stroke="#da3d9b" d="M0 121h1" />
<path stroke="#605ba6" d="M165 121h1" />
<path stroke="#5e3e92" d="M165 122h1" />
<path stroke="#ea82db" d="M1 123h1" />
<path stroke="#ace3fc" d="M93 123h1" />
<path stroke="#67b8e9" d="M164 123h1" />
<path stroke="#5e388d" d="M165 123h1M165 124h1M165 125h1M165 126h1M164 127h2M164 128h2M164 129h2M164 130h2M163 131h3M163 132h3M163 133h3M162 134h4M162 135h4M161 136h5M161 137h5M161 138h5M160 139h6M160 140h6M159 141h7M159 142h7M158 143h8M158 144h8M157 145h9M157 146h9M156 147h10M156 148h10M155 149h11M154 150h12M154 151h12M153 152h13M152 153h14M152 154h14M151 155h15M150 156h16M150 157h16M149 158h17M148 159h18M147 160h19M146 161h20M145 162h21M144 163h22M143 164h23M142 165h24M141 166h25M140 167h26" />
<path stroke="#e464bf" d="M1 124h1" />
<path stroke="#b3e5fb" d="M143 124h1" />
<path stroke="#6490cc" d="M164 124h1" />
<path stroke="#dc46a3" d="M1 125h1" />
<path stroke="#6268b0" d="M164 125h1" />
<path stroke="#69cbf8" d="M163 126h1" />
<path stroke="#5f4193" d="M164 126h1" />
<path stroke="#e87ad4" d="M2 127h1" />
<path stroke="#67aee3" d="M163 127h1M148 157h1" />
<path stroke="#e15cb8" d="M2 128h1" />
<path stroke="#6486c5" d="M163 128h1" />
<path stroke="#615ea8" d="M163 129h1" />
<path stroke="#ed90e8" d="M3 130h1" />
<path stroke="#69c8f5" d="M162 130h1M159 138h1" />
<path stroke="#5e3c90" d="M163 130h1M149 157h1" />
<path stroke="#66a4db" d="M162 131h1" />
<path stroke="#de4daa" d="M3 132h1" />
<path stroke="#ed8ee7" d="M4 133h1M11 148h1M13 151h1" />
<path stroke="#69c6f4" d="M161 133h1" />
<path stroke="#5e3e91" d="M162 133h1" />
<path stroke="#6492cd" d="M161 134h1" />
<path stroke="rgba(251,233,251,0.9882352941176471)" d="M27 135h1" />
<path stroke="#6056a3" d="M161 135h1" />
<path stroke="#e87cd6" d="M5 136h1" />
<path stroke="#86d6f9" d="M138 136h1M131 146h1" />
<path stroke="#67b3e6" d="M160 136h1" />
<path stroke="#df51ac" d="M5 137h1" />
<path stroke="rgba(254,247,254,0.9647058823529412)" d="M28 137h1" />
<path stroke="#6276ba" d="M160 137h1" />
<path stroke="#5e4093" d="M160 138h1" />
<path stroke="rgba(252,238,252,0.9529411764705882)" d="M29 139h1" />
<path stroke="#6595d0" d="M159 139h1" />
<path stroke="#d93a97" d="M6 140h1" />
<path stroke="#6055a2" d="M159 140h1" />
<path stroke="rgba(248,205,248,0.9803921568627451)" d="M30 141h1" />
<path stroke="#f6fcfe" d="M134 141h1M131 145h1" />
<path stroke="#669fd8" d="M158 141h1" />
<path stroke="#ef95ed" d="M8 142h1" />
<path stroke="rgba(251,228,251,0.9607843137254902)" d="M31 142h1" />
<path stroke="#60529f" d="M158 142h1" />
<path stroke="#e56bc6" d="M8 143h1" />
<path stroke="rgba(253,243,253,0.9725490196078431)" d="M32 143h1" />
<path stroke="#659ad4" d="M157 143h1" />
<path stroke="#d93492" d="M8 144h1M9 146h1" />
<path stroke="#ee95ec" d="M9 144h1" />
<path stroke="rgba(254,248,254,0.9882352941176471)" d="M33 144h1" />
<path stroke="#69cbf7" d="M156 144h1M145 160h1" />
<path stroke="#5f4b9b" d="M157 144h1" />
<path stroke="#6596d0" d="M156 145h1" />
<path stroke="#ee93eb" d="M10 146h1" />
<path stroke="#69caf7" d="M155 146h1" />
<path stroke="#5f4899" d="M156 146h1" />
<path stroke="#96dcfa" d="M130 147h1" />
<path stroke="#6491cd" d="M155 147h1" />
<path stroke="#d8308e" d="M10 148h1M12 151h1" />
<path stroke="#68c2f0" d="M154 148h1" />
<path stroke="#5f4295" d="M155 148h1" />
<path stroke="#dd49a6" d="M11 149h1M13 152h1" />
<path stroke="#626cb3" d="M154 149h1" />
<path stroke="#69c4f2" d="M152 151h1" />
<path stroke="#5f4596" d="M153 151h1" />
<path stroke="#6270b6" d="M152 152h1" />
<path stroke="#66a6dd" d="M151 153h1" />
<path stroke="#d8318f" d="M14 154h1" />
<path stroke="#69c6f3" d="M150 154h1M146 159h1" />
<path stroke="#5f4798" d="M151 154h1" />
<path stroke="#8bd8fa" d="M122 155h1M118 158h1" />
<path stroke="#6274b9" d="M150 155h1" />
<path stroke="#e56cc7" d="M16 156h1" />
<path stroke="#659cd5" d="M149 156h1" />
<path stroke="#d62b89" d="M16 157h1" />
<path stroke="#b8e7fc" d="M119 157h1M106 164h1" />
<path stroke="#d72f8e" d="M17 158h1" />
<path stroke="#eb86e0" d="M18 158h1" />
<path stroke="#ecf8fe" d="M117 158h1" />
<path stroke="#68bcec" d="M147 158h1" />
<path stroke="#5f4496" d="M148 158h1" />
<path stroke="#d93895" d="M18 159h1" />
<path stroke="#b2e5fc" d="M116 159h1" />
<path stroke="#60509f" d="M147 159h1" />
<path stroke="#dc45a2" d="M19 160h1" />
<path stroke="#6160aa" d="M146 160h1" />
<path stroke="#e055b0" d="M20 161h1" />
<path stroke="#637abe" d="M145 161h1" />
<path stroke="#e25db9" d="M21 162h1M22 163h1M23 164h1M24 165h1M25 166h1M26 167h1" />
<path stroke="#648bc9" d="M144 162h1M143 163h1M142 164h1M141 165h1M140 166h1M139 167h1" />
</svg>